# xmcd
#
# Track frame offsets: 
#        150
#        15372
#        30757
#        44467
#        59610
#        75534
#        87789
#        101463
#        116433
#        131454
#        144702
#        158146
#
# Disc length: 2353 seconds
#
# Revision: 0
# Processed by: cddbd v1.5.2PL0 Copyright (c) Steve Scherf et al.
# Submitted via: ExactAudioCopy v0.95b4
#
DISCID=89092f0c
DTITLE=Robert Mizzell - Louisiana Man
DYEAR=2001
DGENRE=Country
TTITLE0=Louisiana Man
TTITLE1=Walk The Line Revisited
TTITLE2=Stand By Your Woman Man
TTITLE3=All You Really Need Is Love
TTITLE4=Don't Wake Me Up Till We Touch Down In Shannon
TTITLE5=The One That Got Away
TTITLE6=Hurtin Me
TTITLE7=Whats Forever For
TTITLE8=Baby Don't Go
TTITLE9=Remember Me
TTITLE10=Old Rugged Cross
TTITLE11=The Greatest Gift Of All
EXTD=
EXTT0=
EXTT1=
EXTT2=
EXTT3=
EXTT4=
EXTT5=
EXTT6=
EXTT7=
EXTT8=
EXTT9=
EXTT10=
EXTT11=
PLAYORDER=
